<mxfile host="Electron" modified="2023-06-05T14:34:41.427Z" agent="Mozilla/5.0 (Windows NT 10.0; Win64; x64) AppleWebKit/537.36 (KHTML, like Gecko) draw.io/21.2.8 Chrome/112.0.5615.165 Electron/24.2.0 Safari/537.36" etag="0qIzJHeUp_YoY2AY1AIT" version="21.2.8" type="device">
  <diagram id="C5RBs43oDa-KdzZeNtuy" name="Page-1">
    <mxGraphModel dx="2307" dy="2035" grid="1" gridSize="10" guides="1" tooltips="1" connect="1" arrows="1" fold="1" page="1" pageScale="1" pageWidth="827" pageHeight="1169" math="0" shadow="0">
      <root>
        <mxCell id="WIyWlLk6GJQsqaUBKTNV-0" />
        <mxCell id="WIyWlLk6GJQsqaUBKTNV-1" parent="WIyWlLk6GJQsqaUBKTNV-0" />
        <mxCell id="44GRxBKHosCVQHfmyqW6-3" style="edgeStyle=orthogonalEdgeStyle;rounded=0;orthogonalLoop=1;jettySize=auto;html=1;exitX=1;exitY=0.5;exitDx=0;exitDy=0;" edge="1" parent="WIyWlLk6GJQsqaUBKTNV-1" source="WIyWlLk6GJQsqaUBKTNV-3" target="44GRxBKHosCVQHfmyqW6-0">
          <mxGeometry relative="1" as="geometry" />
        </mxCell>
        <mxCell id="WIyWlLk6GJQsqaUBKTNV-3" value="inicio" style="rounded=1;whiteSpace=wrap;html=1;fontSize=12;glass=0;strokeWidth=1;shadow=0;" parent="WIyWlLk6GJQsqaUBKTNV-1" vertex="1">
          <mxGeometry x="30" y="-10" width="120" height="40" as="geometry" />
        </mxCell>
        <mxCell id="44GRxBKHosCVQHfmyqW6-5" style="edgeStyle=orthogonalEdgeStyle;rounded=0;orthogonalLoop=1;jettySize=auto;html=1;exitX=0.5;exitY=1;exitDx=0;exitDy=0;entryX=0.5;entryY=0;entryDx=0;entryDy=0;" edge="1" parent="WIyWlLk6GJQsqaUBKTNV-1" source="44GRxBKHosCVQHfmyqW6-0" target="44GRxBKHosCVQHfmyqW6-4">
          <mxGeometry relative="1" as="geometry" />
        </mxCell>
        <mxCell id="44GRxBKHosCVQHfmyqW6-0" value="&lt;pre&gt;&lt;code class=&quot;!whitespace-pre hljs language-python&quot;&gt;Obtener la jugada del usuario desde&lt;/code&gt;&lt;/pre&gt;&lt;pre&gt;&lt;code class=&quot;!whitespace-pre hljs language-python&quot;&gt;los argumentos de la línea de comandos&lt;/code&gt;&lt;/pre&gt;" style="rounded=1;whiteSpace=wrap;html=1;fontSize=12;glass=0;strokeWidth=1;shadow=0;" vertex="1" parent="WIyWlLk6GJQsqaUBKTNV-1">
          <mxGeometry x="240" y="-10" width="300" height="60" as="geometry" />
        </mxCell>
        <mxCell id="44GRxBKHosCVQHfmyqW6-6" style="edgeStyle=orthogonalEdgeStyle;rounded=0;orthogonalLoop=1;jettySize=auto;html=1;exitX=0;exitY=0.5;exitDx=0;exitDy=0;entryX=1;entryY=0.5;entryDx=0;entryDy=0;" edge="1" parent="WIyWlLk6GJQsqaUBKTNV-1" source="44GRxBKHosCVQHfmyqW6-4" target="44GRxBKHosCVQHfmyqW6-10">
          <mxGeometry relative="1" as="geometry">
            <mxPoint x="140" y="210" as="targetPoint" />
          </mxGeometry>
        </mxCell>
        <mxCell id="44GRxBKHosCVQHfmyqW6-8" style="edgeStyle=orthogonalEdgeStyle;rounded=0;orthogonalLoop=1;jettySize=auto;html=1;exitX=1;exitY=0.5;exitDx=0;exitDy=0;" edge="1" parent="WIyWlLk6GJQsqaUBKTNV-1" source="44GRxBKHosCVQHfmyqW6-4">
          <mxGeometry relative="1" as="geometry">
            <mxPoint x="620" y="210" as="targetPoint" />
          </mxGeometry>
        </mxCell>
        <mxCell id="44GRxBKHosCVQHfmyqW6-4" value="&lt;pre&gt;&lt;code class=&quot;!whitespace-pre hljs language-python&quot;&gt;¿Es la jugada &lt;/code&gt;&lt;/pre&gt;&lt;pre&gt;&lt;code class=&quot;!whitespace-pre hljs language-python&quot;&gt;del usuario válida?&lt;/code&gt;&lt;/pre&gt;&lt;pre&gt;&lt;code class=&quot;!whitespace-pre hljs language-python&quot;&gt; (piedra, &lt;/code&gt;&lt;/pre&gt;&lt;pre&gt;&lt;code class=&quot;!whitespace-pre hljs language-python&quot;&gt;papel o tijera)&lt;br/&gt;|&lt;/code&gt;&lt;/pre&gt;" style="rhombus;whiteSpace=wrap;html=1;" vertex="1" parent="WIyWlLk6GJQsqaUBKTNV-1">
          <mxGeometry x="285" y="100" width="210" height="220" as="geometry" />
        </mxCell>
        <mxCell id="44GRxBKHosCVQHfmyqW6-7" value="si" style="text;html=1;align=center;verticalAlign=middle;resizable=0;points=[];autosize=1;strokeColor=none;fillColor=none;" vertex="1" parent="WIyWlLk6GJQsqaUBKTNV-1">
          <mxGeometry x="165" y="180" width="30" height="30" as="geometry" />
        </mxCell>
        <mxCell id="44GRxBKHosCVQHfmyqW6-9" value="no" style="text;html=1;align=center;verticalAlign=middle;resizable=0;points=[];autosize=1;strokeColor=none;fillColor=none;" vertex="1" parent="WIyWlLk6GJQsqaUBKTNV-1">
          <mxGeometry x="570" y="180" width="40" height="30" as="geometry" />
        </mxCell>
        <mxCell id="44GRxBKHosCVQHfmyqW6-14" value="" style="edgeStyle=orthogonalEdgeStyle;rounded=0;orthogonalLoop=1;jettySize=auto;html=1;" edge="1" parent="WIyWlLk6GJQsqaUBKTNV-1" source="44GRxBKHosCVQHfmyqW6-10" target="44GRxBKHosCVQHfmyqW6-13">
          <mxGeometry relative="1" as="geometry" />
        </mxCell>
        <mxCell id="44GRxBKHosCVQHfmyqW6-10" value="&lt;pre&gt;&lt;code class=&quot;!whitespace-pre hljs language-python&quot;&gt;Generar una jugada&lt;/code&gt;&lt;/pre&gt;&lt;pre&gt;&lt;code class=&quot;!whitespace-pre hljs language-python&quot;&gt; aleatoria para el computador&lt;/code&gt;&lt;/pre&gt;&lt;pre&gt;&lt;code class=&quot;!whitespace-pre hljs language-python&quot;&gt;(1: piedra, &lt;span class=&quot;hljs-number&quot;&gt;2&lt;/span&gt;: papel, &lt;span class=&quot;hljs-number&quot;&gt;3&lt;/span&gt;: tijera)&lt;/code&gt;&lt;/pre&gt;" style="rounded=1;whiteSpace=wrap;html=1;" vertex="1" parent="WIyWlLk6GJQsqaUBKTNV-1">
          <mxGeometry x="-100" y="150" width="240" height="120" as="geometry" />
        </mxCell>
        <mxCell id="44GRxBKHosCVQHfmyqW6-30" style="edgeStyle=orthogonalEdgeStyle;rounded=0;orthogonalLoop=1;jettySize=auto;html=1;entryX=1.008;entryY=0.647;entryDx=0;entryDy=0;entryPerimeter=0;" edge="1" parent="WIyWlLk6GJQsqaUBKTNV-1" source="44GRxBKHosCVQHfmyqW6-11" target="44GRxBKHosCVQHfmyqW6-27">
          <mxGeometry relative="1" as="geometry">
            <Array as="points">
              <mxPoint x="890" y="190" />
              <mxPoint x="890" y="619" />
            </Array>
          </mxGeometry>
        </mxCell>
        <mxCell id="44GRxBKHosCVQHfmyqW6-11" value="notificar al usuario :&lt;br&gt;&lt;pre&gt;&lt;code class=&quot;!whitespace-pre hljs language-ruby&quot;&gt;Argumento inválido: &lt;/code&gt;&lt;/pre&gt;&lt;pre&gt;&lt;code class=&quot;!whitespace-pre hljs language-ruby&quot;&gt;Debe ser piedra, papel o tijera.&lt;/code&gt;&lt;/pre&gt;" style="rounded=1;whiteSpace=wrap;html=1;" vertex="1" parent="WIyWlLk6GJQsqaUBKTNV-1">
          <mxGeometry x="620" y="140" width="250" height="100" as="geometry" />
        </mxCell>
        <mxCell id="44GRxBKHosCVQHfmyqW6-16" value="" style="edgeStyle=orthogonalEdgeStyle;rounded=0;orthogonalLoop=1;jettySize=auto;html=1;" edge="1" parent="WIyWlLk6GJQsqaUBKTNV-1" source="44GRxBKHosCVQHfmyqW6-13" target="44GRxBKHosCVQHfmyqW6-15">
          <mxGeometry relative="1" as="geometry" />
        </mxCell>
        <mxCell id="44GRxBKHosCVQHfmyqW6-13" value="&lt;pre&gt;&lt;code class=&quot;!whitespace-pre hljs language-python&quot;&gt;Asignar la jugada aleatoria &lt;/code&gt;&lt;/pre&gt;&lt;pre&gt;&lt;code class=&quot;!whitespace-pre hljs language-python&quot;&gt;del computador a su respectiva opción &lt;/code&gt;&lt;/pre&gt;&lt;pre&gt;&lt;code class=&quot;!whitespace-pre hljs language-python&quot;&gt;(piedra, papel o tijera)&lt;br&gt;&lt;/code&gt;&lt;/pre&gt;" style="whiteSpace=wrap;html=1;rounded=1;" vertex="1" parent="WIyWlLk6GJQsqaUBKTNV-1">
          <mxGeometry x="-150" y="380" width="340" height="90" as="geometry" />
        </mxCell>
        <mxCell id="44GRxBKHosCVQHfmyqW6-18" value="" style="edgeStyle=orthogonalEdgeStyle;rounded=0;orthogonalLoop=1;jettySize=auto;html=1;" edge="1" parent="WIyWlLk6GJQsqaUBKTNV-1" source="44GRxBKHosCVQHfmyqW6-15" target="44GRxBKHosCVQHfmyqW6-17">
          <mxGeometry relative="1" as="geometry" />
        </mxCell>
        <mxCell id="44GRxBKHosCVQHfmyqW6-15" value="&#xa;&lt;pre&gt;&lt;code class=&quot;!whitespace-pre hljs language-python&quot;&gt;Mostrar la jugada &lt;span class=&quot;hljs-keyword&quot;&gt;del&lt;/span&gt; computador&lt;/code&gt;&lt;/pre&gt;&#xa;&#xa;" style="whiteSpace=wrap;html=1;rounded=1;" vertex="1" parent="WIyWlLk6GJQsqaUBKTNV-1">
          <mxGeometry x="-115" y="570" width="270" height="60" as="geometry" />
        </mxCell>
        <mxCell id="44GRxBKHosCVQHfmyqW6-20" value="" style="edgeStyle=orthogonalEdgeStyle;rounded=0;orthogonalLoop=1;jettySize=auto;html=1;" edge="1" parent="WIyWlLk6GJQsqaUBKTNV-1" source="44GRxBKHosCVQHfmyqW6-17" target="44GRxBKHosCVQHfmyqW6-19">
          <mxGeometry relative="1" as="geometry" />
        </mxCell>
        <mxCell id="44GRxBKHosCVQHfmyqW6-25" value="" style="edgeStyle=orthogonalEdgeStyle;rounded=0;orthogonalLoop=1;jettySize=auto;html=1;" edge="1" parent="WIyWlLk6GJQsqaUBKTNV-1" source="44GRxBKHosCVQHfmyqW6-17" target="44GRxBKHosCVQHfmyqW6-24">
          <mxGeometry relative="1" as="geometry" />
        </mxCell>
        <mxCell id="44GRxBKHosCVQHfmyqW6-17" value="&lt;pre&gt;&lt;code class=&quot;!whitespace-pre hljs language-python&quot;&gt;¿El usuario y el computador &lt;/code&gt;&lt;/pre&gt;&lt;pre&gt;&lt;code class=&quot;!whitespace-pre hljs language-python&quot;&gt;hicieron la misma jugada?&lt;/code&gt;&lt;/pre&gt;" style="rhombus;whiteSpace=wrap;html=1;rounded=1;" vertex="1" parent="WIyWlLk6GJQsqaUBKTNV-1">
          <mxGeometry x="330" y="520" width="290" height="160" as="geometry" />
        </mxCell>
        <mxCell id="44GRxBKHosCVQHfmyqW6-29" style="edgeStyle=orthogonalEdgeStyle;rounded=0;orthogonalLoop=1;jettySize=auto;html=1;entryX=0.5;entryY=0;entryDx=0;entryDy=0;" edge="1" parent="WIyWlLk6GJQsqaUBKTNV-1" source="44GRxBKHosCVQHfmyqW6-19" target="44GRxBKHosCVQHfmyqW6-27">
          <mxGeometry relative="1" as="geometry">
            <Array as="points">
              <mxPoint x="780" y="420" />
            </Array>
          </mxGeometry>
        </mxCell>
        <mxCell id="44GRxBKHosCVQHfmyqW6-19" value="es un empate" style="whiteSpace=wrap;html=1;rounded=1;" vertex="1" parent="WIyWlLk6GJQsqaUBKTNV-1">
          <mxGeometry x="415" y="390" width="120" height="60" as="geometry" />
        </mxCell>
        <mxCell id="44GRxBKHosCVQHfmyqW6-21" value="si" style="text;html=1;align=center;verticalAlign=middle;resizable=0;points=[];autosize=1;strokeColor=none;fillColor=none;" vertex="1" parent="WIyWlLk6GJQsqaUBKTNV-1">
          <mxGeometry x="475" y="468" width="30" height="30" as="geometry" />
        </mxCell>
        <mxCell id="44GRxBKHosCVQHfmyqW6-28" style="edgeStyle=orthogonalEdgeStyle;rounded=0;orthogonalLoop=1;jettySize=auto;html=1;" edge="1" parent="WIyWlLk6GJQsqaUBKTNV-1" source="44GRxBKHosCVQHfmyqW6-24" target="44GRxBKHosCVQHfmyqW6-27">
          <mxGeometry relative="1" as="geometry" />
        </mxCell>
        <mxCell id="44GRxBKHosCVQHfmyqW6-24" value="Gano , o perdio" style="whiteSpace=wrap;html=1;rounded=1;" vertex="1" parent="WIyWlLk6GJQsqaUBKTNV-1">
          <mxGeometry x="415" y="810" width="120" height="60" as="geometry" />
        </mxCell>
        <mxCell id="44GRxBKHosCVQHfmyqW6-26" value="no" style="text;html=1;align=center;verticalAlign=middle;resizable=0;points=[];autosize=1;strokeColor=none;fillColor=none;" vertex="1" parent="WIyWlLk6GJQsqaUBKTNV-1">
          <mxGeometry x="470" y="758" width="40" height="30" as="geometry" />
        </mxCell>
        <mxCell id="44GRxBKHosCVQHfmyqW6-27" value="fin" style="rounded=1;whiteSpace=wrap;html=1;" vertex="1" parent="WIyWlLk6GJQsqaUBKTNV-1">
          <mxGeometry x="720" y="580" width="120" height="60" as="geometry" />
        </mxCell>
      </root>
    </mxGraphModel>
  </diagram>
</mxfile>
